<svg width="24" height="24" viewBox="0 0 24 24" fill="none" xmlns="http://www.w3.org/2000/svg">
<path d="M17.3334 3.99992H21.3334C21.687 3.99992 22.0261 4.14039 22.2762 4.39044C22.5262 4.64049 22.6667 4.97963 22.6667 5.33325V19.9999C22.6667 20.7072 22.3858 21.3854 21.8857 21.8855C21.3856 22.3856 20.7073 22.6666 20 22.6666C19.2928 22.6666 18.6145 22.3856 18.1144 21.8855C17.6143 21.3854 17.3334 20.7072 17.3334 19.9999V2.66659C17.3334 2.31296 17.1929 1.97382 16.9428 1.72378C16.6928 1.47373 16.3537 1.33325 16 1.33325H2.66671C2.31309 1.33325 1.97395 1.47373 1.7239 1.72378C1.47385 1.97382 1.33337 2.31296 1.33337 2.66659V18.6666C1.33337 19.7275 1.7548 20.7449 2.50495 21.495C3.25509 22.2452 4.27251 22.6666 5.33337 22.6666H20" stroke="#00427A" stroke-width="2" stroke-linecap="round" stroke-linejoin="round"/>
</svg>
