<svg width="26" height="26" viewBox="0 0 26 26" fill="none" xmlns="http://www.w3.org/2000/svg">
<rect x="0.9" y="0.9" width="24.2" height="24.2" rx="12.1" stroke="#00427A" stroke-width="1.8"/>
<path d="M13.6364 6.3636C13.2849 6.01213 12.7151 6.01213 12.3636 6.3636L6.63604 12.0912C6.28457 12.4426 6.28457 13.0125 6.63604 13.364C6.98751 13.7154 7.55736 13.7154 7.90883 13.364L13 8.27279L18.0912 13.364C18.4426 13.7154 19.0125 13.7154 19.364 13.364C19.7154 13.0125 19.7154 12.4426 19.364 12.0912L13.6364 6.3636ZM12.1 19C12.1 19.4971 12.5029 19.9 13 19.9C13.4971 19.9 13.9 19.4971 13.9 19L12.1 19ZM12.1 7L12.1 19L13.9 19L13.9 7L12.1 7Z" fill="#00427A"/>
</svg>
